<svg version="1.2" xmlns="http://www.w3.org/2000/svg" viewBox="0 0 282 141" width="282" height="141"><style>.a{fill:#333}</style><path fill-rule="evenodd" class="a" d="m45.3 76.2h17.9q-0.4 10.1-4.1 17-3.7 6.9-10.5 10.5-6.8 3.5-16.4 3.5-7.4 0-13.2-2.4-5.8-2.6-9.9-7.4-4-4.9-6.1-12-2-7.2-2-16.6v-15.2q0-9.3 2.1-16.5 2.2-7.2 6.3-12.1 4.1-4.9 9.9-7.3 5.8-2.6 13.2-2.6 9.7 0 16.3 3.7 6.6 3.7 10.2 10.8 3.6 7 4.3 17.2h-18q-0.1-6.4-1.4-10.1-1.2-3.7-3.9-5.1-2.7-1.6-7.5-1.6-3.6 0-6.2 1.3-2.6 1.2-4.2 4-1.7 2.8-2.5 7.3-0.7 4.5-0.7 10.9v15.3q0 6.4 0.6 10.9 0.7 4.4 2.2 7.2 1.5 2.9 4 4.1 2.6 1.3 6.5 1.3 4.6 0 7.3-1.3 2.9-1.4 4.2-4.9 1.4-3.5 1.6-9.9zm154.3-63.7h17.3v94.5l-15.6 0.1-0.8-7q-2.4 3.6-5.6 5.8-3.5 2.3-8.3 2.3-5.2 0-9.3-2.1-4-2.1-6.7-6.1-2.7-4.2-4.2-10.1-1.3-6.1-1.3-13.9v-4.4q0-8.1 1.3-14.2 1.5-6.1 4.2-10.2 2.8-4 6.8-6 4.1-2 9.3-2 4.7 0 8.3 2.4 2.6 1.7 4.6 4.3zm-17.3 59.1v4.4q0 4.7 0.5 8.1 0.4 3.3 1.5 5.5 1.1 2 2.9 3.1 1.8 1 4.4 1 3.5 0 5.6-1.7 1.5-1.2 2.4-3v-30.2q-0.3-0.7-0.7-1.2-1.2-1.9-3-3-1.8-1-4.2-1-2.6 0-4.5 1-1.7 1.1-2.8 3.3-1 2.1-1.6 5.6-0.5 3.4-0.5 8.1zm74.4 36.6q-6.8 0-12.1-2.1-5.2-2.1-8.9-6-3.6-4-5.5-9.7-1.9-5.6-1.9-12.9v-5.5q0-8.1 1.8-14.2 1.9-6.1 5.3-10.3 3.3-4.2 8.3-6.2 4.9-2.1 11.2-2.1 6.3 0 11 2.1 4.8 2 8 6.1 3.1 4.1 4.7 10.1 1.6 6 1.6 14v7.9h-34.6q0.2 3.3 0.8 5.8 0.8 3.1 2.3 5.1 1.6 1.9 3.9 2.8 2.3 0.8 5.3 0.8 4.5 0 8.2-1.6 3.6-1.7 6.2-4.5l6.9 10.4q-1.8 2.4-4.9 4.7-3.1 2.3-7.5 3.8-4.4 1.5-10.1 1.5zm6.6-40.9v-1.6q0-4-0.9-6.7-0.8-2.8-2.7-4.1-1.8-1.4-4.9-1.4-2.6 0-4.4 1-1.8 1.1-2.8 3.3-1 2.2-1.5 5.8-0.2 1.7-0.4 3.7zm-173.7 72.7v-13.1h2l2.5 7q0.2 0.7 0.4 1.4 0.3 0.6 0.5 1.3h0.1q0.2-0.7 0.4-1.3 0.3-0.7 0.5-1.4l2.5-7h2v13.1h-1.6v-7.2q0-0.9 0.1-2 0.1-1 0.2-1.9h-0.1l-1.1 3-2.4 6.8h-1.1l-2.5-6.8-1.1-3q0 0.9 0.1 1.9 0.1 1.1 0.1 2v7.2zm14.5 0v-13.1h7.6v1.4h-5.9v4.1h4.9v1.4h-4.9v4.8h6.1v1.4zm10.5 0v-13.1h1.7v11.7h5.7v1.4zm9.7 0v-13.1h3.3q3.1 0 4.6 1.7 1.6 1.7 1.6 4.8 0 3.1-1.6 4.9-1.5 1.7-4.5 1.7zm1.7-1.4h1.5q2.3 0 3.4-1.3 1.2-1.4 1.2-3.9 0-2.5-1.2-3.8-1.1-1.4-3.4-1.4h-1.5zm14.6 1.4v-13.1h1.7v11.7h5.7v1.4zm8 0l4.5-13.1h1.9l4.4 13.1h-1.8l-1.2-4h-4.8l-1.3 4zm4-7.3l-0.6 2h4l-0.7-2q-0.3-1.1-0.6-2.2-0.4-1.1-0.7-2.3h-0.1q-0.3 1.2-0.6 2.3-0.3 1.1-0.7 2.2zm8.7 7.3v-13.1h3.9q1.3 0 2.3 0.3 1 0.3 1.6 1 0.6 0.7 0.6 1.9 0 1-0.5 1.8-0.5 0.7-1.5 1v0.1q1.2 0.2 2 1 0.7 0.8 0.7 2.2 0 1.2-0.6 2.1-0.6 0.9-1.8 1.3-1.1 0.4-2.6 0.4zm1.7-7.5h1.9q1.7 0 2.5-0.6 0.7-0.6 0.7-1.6 0-1.1-0.8-1.6-0.7-0.5-2.3-0.5h-2zm0 6.2h2.3q1.7 0 2.6-0.6 1-0.6 1-2 0-1.2-1-1.7-0.9-0.6-2.6-0.6h-2.3zm13.5 1.5q-1.4 0-2.6-0.5-1.2-0.5-2-1.4l1-1.2q0.7 0.8 1.6 1.2 1 0.5 2 0.5 1.3 0 2-0.6 0.7-0.6 0.7-1.6 0-0.6-0.3-1-0.3-0.4-0.8-0.7-0.4-0.3-1.1-0.6l-1.8-0.8q-0.7-0.3-1.3-0.7-0.6-0.4-1-1.1-0.4-0.6-0.4-1.6 0-1 0.5-1.8 0.6-0.8 1.5-1.2 0.9-0.5 2.1-0.5 1.2 0 2.2 0.5 1 0.4 1.7 1.2l-0.9 1q-0.6-0.5-1.3-0.9-0.8-0.3-1.7-0.3-1.1 0-1.8 0.5-0.6 0.5-0.6 1.4 0 0.6 0.3 1.1 0.3 0.4 0.8 0.6 0.5 0.3 1.1 0.5l1.8 0.8q0.8 0.3 1.4 0.8 0.6 0.4 1 1.1 0.3 0.6 0.3 1.6 0 1-0.5 1.9-0.6 0.8-1.6 1.3-1 0.5-2.3 0.5zm-43.8-44.2c-2.7-2.2-9.2-9.6-8.5-16q1.5 0.3 3 0.6c9 1.9 18.3 3.8 25.2 9.4-0.6 0.3-1.2 0.5-1.7 0.8-5.9 2.7-11.9 4.6-17.9 5.2zm-56.4-37c-0.4-1.3-0.7-2.6-1-3.9 2.6 4 6.5 6.9 10 9.7 1.4 1.2 2.9 2.3 4.5 3.2-0.6 2.2-1.7 7.4 0.5 12.5-3.9-3.8-7.3-8.2-9.9-12.8-1.6-2.9-2.9-5.8-4.1-8.7zm17 24.2c-1.7-3.3-4-10.3-1.8-14.3 2.4 1.5 5 2.8 7.6 3.9 2.3 0.9 4.5 1.8 6.8 2.5-0.1 3.3-0.3 11.2 5.2 18-6.5-2.2-12.5-5.7-17.8-10.1zm20.7 10.9c-1.9-2.1-7.7-11.4-6-18.1 4.5 1.4 9.2 2.4 13.9 3.4 0.3 2.8 1.1 11.3 8.1 16.8h-0.2c-5.4 0-10.8-0.6-15.8-2.1zm28.8 1.5c3.5-1.1 6.9-2.5 10.4-4.2-0.8 0.7-1.5 1.5-2.2 2.3l-0.9 0.9c-1.4 1.4-2.9 2.8-4.4 4.1-3.4 3.1-7.2 5.8-11.5 7.9-6.7 3.2-14.2 4.7-21.7 4.1-3-0.2-6-0.8-9-1.7 2.6-2 8.7-7.6 14.8-10.3 1-0.6 2.1-0.9 3.1-1.2 2.5 0.4 5 0.5 7.6 0.5 4.5 0 9.2-0.9 13.8-2.4zm-62.5-22.3c-2.2-0.6-4.8-1.2-7.7-1.5-0.5-5.1-0.3-10 0.4-14.7q0.3-1.8 0.6-3.6c0.7 3.6 1.9 7.2 3.4 10.6 1.5 3.4 3.5 6.8 5.7 9.9-0.7-0.2-1.5-0.4-2.4-0.7zm34.7 24.6c-4 2.1-9.8 5.3-14 10.3-6.7-2.5-12.6-6.6-17.2-11.6 2.6-1.4 8.7-4.9 14.6-5.8 1-0.1 1.9-0.2 2.9-0.1 2.4 1.4 5.1 2.6 7.8 3.7q4 1.5 8.2 2.4c-0.6 0.3-1.4 0.7-2.3 1.1zm-18.9-8.6c-3.5 0.9-8.9 2.4-13.7 5.6-1.5-1.8-2.9-3.7-4-5.7-3-5-4.7-10.4-5.5-15.5 2.6 0.3 5.9 0.7 8.9 1.7q1.6 0.6 3 1.3c3.8 4.7 8.3 8.9 13.5 12.2q-0.9 0.2-2.2 0.4zm9.8-35.3c-1-0.1-2-0.4-3-0.6-9-1.9-18.3-3.8-25.2-9.4 0.6-0.3 1.1-0.5 1.7-0.8 5.9-2.7 11.8-4.6 17.9-5.2 2.8 2.2 9.2 9.6 8.6 16zm47.9 21c0.5 1.3 0.8 2.6 1.1 3.9-2.6-4-6.5-6.9-10-9.7-1.4-1.2-2.9-2.3-4.5-3.2 0.6-2.2 1.7-7.4-0.5-12.5 3.9 3.8 7.3 8.2 9.9 12.8 1.6 2.9 2.9 5.8 4 8.7zm-17-24.2c1.7 3.3 4 10.3 1.9 14.3-2.5-1.5-5-2.8-7.7-3.9-2.2-0.9-4.5-1.8-6.8-2.5 0.2-3.3 0.4-11.2-5.2-18 6.5 2.2 12.6 5.7 17.8 10.1zm-28.6 3.8c-0.3-2.8-1.2-11.3-8.1-16.8h0.2c5.4 0 10.7 0.7 15.7 2.1 2 2.1 7.8 11.4 6.1 18.1-4.6-1.4-9.2-2.5-13.9-3.4zm48.8 22.3q-0.3 1.7-0.6 3.5c-0.7-3.5-1.9-7.1-3.4-10.5-1.5-3.4-3.4-6.8-5.6-9.9 0.7 0.2 1.6 0.5 2.4 0.7 2.2 0.6 4.8 1.2 7.7 1.5 0.5 5.1 0.3 10-0.5 14.7zm-69.7-38.5c-3.5 1.1-6.9 2.5-10.3 4.2 0.7-0.8 1.5-1.6 2.2-2.3l0.8-0.9c1.4-1.4 2.9-2.8 4.4-4.1 3.4-3.1 7.3-5.8 11.5-7.9 6.7-3.2 14.3-4.8 21.8-4.1 3 0.2 6 0.8 8.9 1.7-2.6 2-8.7 7.6-14.8 10.3-1.1 0.6-2.1 0.9-3.1 1.2-2.5-0.4-5-0.5-7.6-0.5-4.6 0-9.2 0.9-13.8 2.4zm27.7-2.3c4.1-2.1 9.9-5.3 14.1-10.3 6.7 2.5 12.6 6.6 17.2 11.6-2.6 1.4-8.7 4.9-14.6 5.8-1 0.1-2 0.2-2.9 0.1-2.5-1.4-5.1-2.6-7.8-3.7-2.7-1-5.5-1.8-8.2-2.4 0.6-0.3 1.4-0.7 2.2-1.1zm18.9 8.6c3.5-0.9 8.9-2.4 13.7-5.6 1.5 1.8 2.9 3.7 4 5.7 3 5 4.7 10.3 5.5 15.5-2.6-0.3-5.9-0.7-8.9-1.7q-1.6-0.6-2.9-1.3c-3.8-4.7-8.3-8.9-13.5-12.2 0.6-0.1 1.3-0.3 2.1-0.4z"/></svg>